<mxfile host="app.diagrams.net" agent="Mozilla/5.0 (Macintosh; Intel Mac OS X 10_15_7) AppleWebKit/537.36 (KHTML, like Gecko) Chrome/139.0.0.0 Safari/537.36" version="28.0.9">
  <diagram name="Page-1" id="gq547RzR7dGRfh6frgQc">
    <mxGraphModel dx="574" dy="410" grid="1" gridSize="10" guides="1" tooltips="1" connect="1" arrows="1" fold="1" page="1" pageScale="1" pageWidth="850" pageHeight="1100" math="1" shadow="0">
      <root>
        <mxCell id="0" />
        <mxCell id="1" parent="0" />
        <mxCell id="Q-S0luPAoe812pMzrayR-8" value="" style="group;rotation=-45;" vertex="1" connectable="0" parent="1">
          <mxGeometry x="190" y="300" width="240" height="40" as="geometry" />
        </mxCell>
        <mxCell id="Q-S0luPAoe812pMzrayR-9" value="" style="rounded=0;whiteSpace=wrap;html=1;fillColor=#0050ef;fontColor=#ffffff;strokeColor=none;rotation=-45;" vertex="1" parent="Q-S0luPAoe812pMzrayR-8">
          <mxGeometry x="10" y="35" width="170" height="20" as="geometry" />
        </mxCell>
        <mxCell id="Q-S0luPAoe812pMzrayR-10" value="" style="rounded=0;whiteSpace=wrap;html=1;fillColor=#0050ef;fontColor=#ffffff;strokeColor=none;rotation=-45;" vertex="1" parent="Q-S0luPAoe812pMzrayR-8">
          <mxGeometry x="137" y="-57" width="80" height="40" as="geometry" />
        </mxCell>
        <mxCell id="Q-S0luPAoe812pMzrayR-27" value="" style="shape=tape;whiteSpace=wrap;html=1;rotation=-75;" vertex="1" parent="Q-S0luPAoe812pMzrayR-8">
          <mxGeometry x="193" y="-67" width="20" height="10" as="geometry" />
        </mxCell>
        <mxCell id="Q-S0luPAoe812pMzrayR-11" value="" style="group;rotation=-45;" vertex="1" connectable="0" parent="1">
          <mxGeometry x="330.00494936611665" y="300.00494936611665" width="240" height="109.99840412228667" as="geometry" />
        </mxCell>
        <mxCell id="Q-S0luPAoe812pMzrayR-12" value="" style="rounded=0;whiteSpace=wrap;html=1;fillColor=#0050ef;fontColor=#ffffff;strokeColor=none;rotation=-45;" vertex="1" parent="Q-S0luPAoe812pMzrayR-11">
          <mxGeometry x="10" y="35" width="170" height="20" as="geometry" />
        </mxCell>
        <mxCell id="Q-S0luPAoe812pMzrayR-13" value="" style="rounded=0;whiteSpace=wrap;html=1;fillColor=#0050ef;fontColor=#ffffff;strokeColor=none;rotation=-45;" vertex="1" parent="Q-S0luPAoe812pMzrayR-11">
          <mxGeometry x="137" y="-57" width="80" height="40" as="geometry" />
        </mxCell>
        <mxCell id="Q-S0luPAoe812pMzrayR-29" value="" style="shape=tape;whiteSpace=wrap;html=1;rotation=-75;" vertex="1" parent="Q-S0luPAoe812pMzrayR-11">
          <mxGeometry x="25.99287021635388" y="96.99840412228667" width="20" height="10" as="geometry" />
        </mxCell>
        <mxCell id="Q-S0luPAoe812pMzrayR-31" value="$$\theta$$" style="rounded=0;whiteSpace=wrap;html=1;strokeColor=none;fillColor=none;" vertex="1" parent="Q-S0luPAoe812pMzrayR-11">
          <mxGeometry x="120" y="50" width="30" height="30" as="geometry" />
        </mxCell>
        <mxCell id="Q-S0luPAoe812pMzrayR-34" value="$$\phi$$" style="rounded=0;whiteSpace=wrap;html=1;strokeColor=none;fillColor=none;" vertex="1" parent="Q-S0luPAoe812pMzrayR-11">
          <mxGeometry x="89.99505063388335" y="66.99505063388335" width="30" height="30" as="geometry" />
        </mxCell>
        <mxCell id="Q-S0luPAoe812pMzrayR-15" value="" style="endArrow=classic;html=1;rounded=0;" edge="1" parent="1">
          <mxGeometry width="50" height="50" relative="1" as="geometry">
            <mxPoint x="422" y="90" as="sourcePoint" />
            <mxPoint x="362" y="420" as="targetPoint" />
          </mxGeometry>
        </mxCell>
        <mxCell id="Q-S0luPAoe812pMzrayR-16" value="" style="group;rotation=-45;" vertex="1" connectable="0" parent="1">
          <mxGeometry x="260.00494936611665" y="300.00494936611665" width="240" height="40" as="geometry" />
        </mxCell>
        <mxCell id="Q-S0luPAoe812pMzrayR-17" value="" style="rounded=0;whiteSpace=wrap;html=1;fillColor=#0050ef;fontColor=#ffffff;strokeColor=none;rotation=-45;" vertex="1" parent="Q-S0luPAoe812pMzrayR-16">
          <mxGeometry x="10" y="35" width="170" height="20" as="geometry" />
        </mxCell>
        <mxCell id="Q-S0luPAoe812pMzrayR-18" value="" style="rounded=0;whiteSpace=wrap;html=1;fillColor=#0050ef;fontColor=#ffffff;strokeColor=none;rotation=-45;" vertex="1" parent="Q-S0luPAoe812pMzrayR-16">
          <mxGeometry x="137" y="-57" width="80" height="40" as="geometry" />
        </mxCell>
        <mxCell id="Q-S0luPAoe812pMzrayR-28" value="" style="shape=tape;whiteSpace=wrap;html=1;rotation=-75;" vertex="1" parent="Q-S0luPAoe812pMzrayR-16">
          <mxGeometry x="109.99287021635388" y="14.998404122286615" width="20" height="10" as="geometry" />
        </mxCell>
        <mxCell id="Q-S0luPAoe812pMzrayR-20" value="" style="endArrow=none;dashed=1;html=1;dashPattern=1 3;strokeWidth=2;rounded=0;" edge="1" parent="1" target="Q-S0luPAoe812pMzrayR-21">
          <mxGeometry width="50" height="50" relative="1" as="geometry">
            <mxPoint x="350" y="420" as="sourcePoint" />
            <mxPoint x="680" y="90" as="targetPoint" />
          </mxGeometry>
        </mxCell>
        <mxCell id="Q-S0luPAoe812pMzrayR-21" value="2" style="ellipse;whiteSpace=wrap;html=1;aspect=fixed;" vertex="1" parent="1">
          <mxGeometry x="680" y="50" width="40" height="40" as="geometry" />
        </mxCell>
        <mxCell id="Q-S0luPAoe812pMzrayR-22" value="1" style="ellipse;whiteSpace=wrap;html=1;aspect=fixed;" vertex="1" parent="1">
          <mxGeometry x="405" y="50" width="40" height="40" as="geometry" />
        </mxCell>
        <mxCell id="Q-S0luPAoe812pMzrayR-24" value="" style="endArrow=classic;html=1;rounded=0;" edge="1" parent="1">
          <mxGeometry width="50" height="50" relative="1" as="geometry">
            <mxPoint x="360" y="400" as="sourcePoint" />
            <mxPoint x="530" y="400" as="targetPoint" />
          </mxGeometry>
        </mxCell>
        <mxCell id="Q-S0luPAoe812pMzrayR-30" value="" style="curved=1;endArrow=classic;html=1;rounded=0;entryX=0.816;entryY=-0.164;entryDx=0;entryDy=0;entryPerimeter=0;" edge="1" parent="1">
          <mxGeometry width="50" height="50" relative="1" as="geometry">
            <mxPoint x="460" y="400" as="sourcePoint" />
            <mxPoint x="383.6003475973006" y="297.6287950266178" as="targetPoint" />
            <Array as="points">
              <mxPoint x="460" y="360" />
              <mxPoint x="440" y="330" />
              <mxPoint x="420" y="310" />
            </Array>
          </mxGeometry>
        </mxCell>
        <mxCell id="Q-S0luPAoe812pMzrayR-33" value="" style="curved=1;endArrow=classic;html=1;rounded=0;" edge="1" parent="1">
          <mxGeometry width="50" height="50" relative="1" as="geometry">
            <mxPoint x="430" y="400" as="sourcePoint" />
            <mxPoint x="410" y="360" as="targetPoint" />
            <Array as="points">
              <mxPoint x="430" y="370" />
            </Array>
          </mxGeometry>
        </mxCell>
        <mxCell id="Q-S0luPAoe812pMzrayR-35" value="$$v$$" style="rounded=0;whiteSpace=wrap;html=1;strokeColor=none;fillColor=none;" vertex="1" parent="1">
          <mxGeometry x="530" y="385" width="30" height="30" as="geometry" />
        </mxCell>
      </root>
    </mxGraphModel>
  </diagram>
</mxfile>
